<svg xmlns="http://www.w3.org/2000/svg" width="18" height="18" viewBox="0 0 18 18">
  <defs>
    <style>
      .fill-5 {
        fill: #ccc;
      }
    </style>
  </defs>
  <g id="ICONS">
    <path class="fill-5" d="M11,14.25V16H2V7H3.75A.25.25,0,0,0,4,6.75v-.5A.25.25,0,0,0,3.75,6H1.5a.5.5,0,0,0-.5.5v10a.5.5,0,0,0,.5.5h10a.5.5,0,0,0,.5-.5V14.25a.25.25,0,0,0-.25-.25h-.5A.25.25,0,0,0,11,14.25Z"/>
    <path class="fill-5" d="M6.947,6a.25.25,0,0,0-.177.427L8.464,8.121,3.691,12.894a.252.252,0,0,0,0,.354l1.061,1.061a.252.252,0,0,0,.354,0L9.879,9.536l1.694,1.694A.25.25,0,0,0,12,11.053V6Z"/>
    <path class="fill-5" d="M16.5,1H6.5a.5.5,0,0,0-.5.5V3.75A.25.25,0,0,0,6.25,4h.5A.25.25,0,0,0,7,3.75V2h9v9H14.247a.25.25,0,0,0-.25.25v.5a.25.25,0,0,0,.25.25H16.5a.5.5,0,0,0,.5-.5V1.5A.5.5,0,0,0,16.5,1Z"/>
  </g>
</svg>
