<svg xmlns="http://www.w3.org/2000/svg" width="18" height="18" viewBox="0 0 18 18">
  <defs>
    <style>
      .fill {
        fill: #ccc;
      }
    </style>
  </defs>
  <g id="ICONS">
    <path class="fill" d="M11,14.25V16H2V7H3.75A.25.25,0,0,0,4,6.75v-.5A.25.25,0,0,0,3.75,6H1.5a.5.5,0,0,0-.5.5v10a.5.5,0,0,0,.5.5h10a.5.5,0,0,0,.5-.5V14.25a.25.25,0,0,0-.25-.25h-.5A.25.25,0,0,0,11,14.25Z"/>
    <path class="fill" d="M16.5,1H6.5a.5.5,0,0,0-.5.5V3.75A.25.25,0,0,0,6.25,4h.5A.25.25,0,0,0,7,3.75V2h9v9H14.247a.25.25,0,0,0-.25.25v.5a.25.25,0,0,0,.25.25H16.5a.5.5,0,0,0,.5-.5V1.5A.5.5,0,0,0,16.5,1Z"/>
    <rect class="fill" x="8.37" y="-1.947" width="1.227" height="21.927" rx="0.409" transform="translate(-3.745 8.993) rotate(-45)"/>
  </g>
</svg>
