<svg xmlns="http://www.w3.org/2000/svg" width="16" height="16" viewBox="0 0 16 16">
  <g>
    <path d="M10,13.25V15H1V6H2.75A.25.25,0,0,0,3,5.75v-.5A.25.25,0,0,0,2.75,5H.5a.5.5,0,0,0-.5.5v10a.5.5,0,0,0,.5.5h10a.5.5,0,0,0,.5-.5V13.25a.25.25,0,0,0-.25-.25h-.5A.25.25,0,0,0,10,13.25Z" style="fill: #666"/>
    <path d="M7.913,3a.249.249,0,0,0-.25.249.251.251,0,0,0,.073.178L9.43,5.121,5.087,9.464,3.393,7.77A.247.247,0,0,0,3.216,7.7a.25.25,0,0,0-.25.251V13H8.019a.252.252,0,0,0,.178-.074.25.25,0,0,0,0-.353L6.5,10.879l4.343-4.343L12.539,8.23a.25.25,0,0,0,.427-.177V3Z" style="fill: #666"/>
    <path d="M15.5,0H5.5A.5.5,0,0,0,5,.5V2.75A.25.25,0,0,0,5.25,3h.5A.25.25,0,0,0,6,2.75V1h9v9H13.25a.25.25,0,0,0-.25.25v.5a.25.25,0,0,0,.25.25H15.5a.5.5,0,0,0,.5-.5V.5A.5.5,0,0,0,15.5,0Z" style="fill: #666"/>
  </g>
</svg>
