<svg xmlns="http://www.w3.org/2000/svg" viewBox="0 0 16 16"><title>Unreal_idle</title><g id="Layer_2" data-name="Layer 2"><g id="New_Icons" data-name="New Icons"><g id="Unreal_idle"><path d="M10.55,7.34a.34.34,0,0,1-.29-.12c0-.06,0-.86,0-1.66a10.73,10.73,0,0,1,0-1.66,12.41,12.41,0,0,1,1-1.32A4.2,4.2,0,0,0,9.05,3.77a1.31,1.31,0,0,0-.71-.15,1,1,0,0,1,.44.75V7.16a1.75,1.75,0,0,1-.86.41.54.54,0,0,1-.43-.21.64.64,0,0,1-.07-.12V3.79a.35.35,0,0,1-.18.06A.24.24,0,0,1,7,3.69.9.9,0,0,1,7,3.3c0-.64.75-1.06.75-1.06a5.92,5.92,0,0,0-3,2,2.92,2.92,0,0,0-1,2.36A5.65,5.65,0,0,1,4.84,5.1a1.33,1.33,0,0,1,.84-.49A.29.29,0,0,1,6,4.89V7.52a.28.28,0,0,1-.34.31.83.83,0,0,1-.26,0A4.21,4.21,0,0,0,8.1,9.06L9,8.2H9l.77.63a5.62,5.62,0,0,0,2.09-2.29c-.63.64-1,.79-1.27.79" style="fill:#fff;fill-rule:evenodd"/><path d="M8,.25a5.64,5.64,0,0,1,3.95,1.58,5.28,5.28,0,0,1,0,7.65,5.7,5.7,0,0,1-7.9,0A5.3,5.3,0,0,1,4,1.83,5.66,5.66,0,0,1,8,.25M8,0A5.75,5.75,0,0,0,2.15,5.66,5.75,5.75,0,0,0,8,11.32a5.75,5.75,0,0,0,5.84-5.66A5.75,5.75,0,0,0,8,0" style="fill:#fff;fill-rule:evenodd"/><g id="E"><polygon points="5.04 15.99 3.79 15.99 3.79 14.89 5.02 14.89 5.02 15.13 4.13 15.13 4.13 15.32 4.98 15.32 4.98 15.55 4.13 15.55 4.13 15.74 5.04 15.74 5.04 15.99" style="fill:#fff;fill-rule:evenodd"/></g><polygon points="6.74 15.99 6.24 15.99 5.57 15.16 5.56 15.16 5.56 15.99 5.23 15.99 5.23 14.89 5.75 14.89 6.4 15.71 6.41 15.71 6.41 14.89 6.74 14.89 6.74 15.99" style="fill:#fff;fill-rule:evenodd"/><path d="M7.72,16H7.44a.5.5,0,0,1-.19,0,.46.46,0,0,1-.14-.05.23.23,0,0,1-.07-.1.33.33,0,0,1,0-.15,1.21,1.21,0,0,1,0-.2v0a1.34,1.34,0,0,1,0-.21.54.54,0,0,1,0-.15A.18.18,0,0,1,7.12,15a.23.23,0,0,1,.13-.06.54.54,0,0,1,.19,0H8l.17,0,.12,0s.05,0,.07.06a.36.36,0,0,1,0,.09.53.53,0,0,1,0,.13v0H8.09a.08.08,0,0,0,0-.06s0,0,0,0l-.1,0H7.45l-.07,0,0,.06a.19.19,0,0,0,0,.08.41.41,0,0,0,0,.12v0a.41.41,0,0,0,0,.12.19.19,0,0,0,0,.08l0,0a.09.09,0,0,0,.07,0l.12,0H8l.06,0,0,0,0,0v-.08H7.66v-.22h.76v.25a.61.61,0,0,1,0,.14.18.18,0,0,1,0,.1.16.16,0,0,1-.07.07.33.33,0,0,1-.12.05L8,16H7.72Z" style="fill:#fff;fill-rule:evenodd"/><g style="isolation:isolate"><polygon points="10.74 15.99 10.24 15.99 9.58 15.17 9.57 15.17 9.57 15.99 9.24 15.99 9.24 14.89 9.75 14.89 10.4 15.71 10.41 15.71 10.41 14.89 10.74 14.89 10.74 15.99" style="fill:#fff;fill-rule:evenodd"/><polygon points="12.24 15.99 11.01 15.99 11.01 14.89 12.22 14.89 12.22 15.14 11.34 15.14 11.34 15.32 12.18 15.32 12.18 15.55 11.34 15.55 11.34 15.74 12.24 15.74 12.24 15.99" style="fill:#fff;fill-rule:evenodd"/></g><path d="M1.2,14.3H.77l-.31,0a.69.69,0,0,1-.23-.08A.57.57,0,0,1,.09,14,.75.75,0,0,1,0,13.85a2,2,0,0,1,0-.26V12.35H.59v1.06a.86.86,0,0,0,0,.17.21.21,0,0,0,0,.12.16.16,0,0,0,.06.08.28.28,0,0,0,.11.05l.17,0h.52l.17,0a.28.28,0,0,0,.11-.05.16.16,0,0,0,.06-.08.21.21,0,0,0,0-.12.91.91,0,0,0,0-.17V12.35h.59v1.24a1.69,1.69,0,0,1,0,.25.47.47,0,0,1-.07.19.35.35,0,0,1-.14.13.63.63,0,0,1-.22.08,2.16,2.16,0,0,1-.32,0H1.2Z" style="fill:#fff;fill-rule:evenodd"/><polygon points="5.5 14.28 4.62 14.28 3.45 12.84 3.44 12.84 3.44 14.28 2.86 14.28 2.86 12.35 3.76 12.35 4.91 13.79 4.92 13.79 4.92 12.35 5.5 12.35 5.5 14.28" style="fill:#fff;fill-rule:evenodd"/><path d="M8.27,14.28H7.69v-.16a.57.57,0,0,0,0-.14.2.2,0,0,0,0-.11.13.13,0,0,0-.06-.07.29.29,0,0,0-.11,0l-.17,0H6.49v.54H5.9V12.35H7.46a2.17,2.17,0,0,1,.4,0,.52.52,0,0,1,.25.1.3.3,0,0,1,.13.18,1.09,1.09,0,0,1,0,.28V13a1.09,1.09,0,0,1,0,.19,1.16,1.16,0,0,1-.06.15.52.52,0,0,1-.11.1.38.38,0,0,1-.16.06h0a.58.58,0,0,1,.17.05.21.21,0,0,1,.11.07.5.5,0,0,1,0,.13,1.34,1.34,0,0,1,0,.21Zm-1-1h.25a.23.23,0,0,0,.13,0,.13.13,0,0,0,.07-.08.57.57,0,0,0,0-.14v0a.49.49,0,0,0,0-.13.13.13,0,0,0-.07-.08.23.23,0,0,0-.13,0h-1v.54Z" style="fill:#fff;fill-rule:evenodd"/><polygon points="10.84 14.28 8.66 14.28 8.66 12.35 10.8 12.35 10.8 12.78 9.24 12.78 9.24 13.11 10.72 13.11 10.72 13.51 9.24 13.51 9.24 13.84 10.84 13.84 10.84 14.28" style="fill:#fff;fill-rule:evenodd"/><path d="M13.85,14.28h-.63L13,13.93H11.78l-.18.35H11l1.08-1.93h.72Zm-1-.75-.41-.77h0l-.41.77Z" style="fill:#fff;fill-rule:evenodd"/><polygon points="16 14.28 14.07 14.28 14.07 12.35 14.66 12.35 14.66 13.83 16 13.83 16 14.28" style="fill:#fff;fill-rule:evenodd"/><g id="I"><rect x="8.66" y="14.89" width="0.34" height="1.09" style="fill:#fff"/></g></g></g></g></svg>